<svg xmlns="http://www.w3.org/2000/svg" width="60" height="50" viewBox="0 0 60 50">
    <defs>
        <clipPath id="dc6bh8bjoa">
            <path data-name="사각형 218" style="fill:none" d="M0 0h33v42.663H0z"/>
        </clipPath>
    </defs>
    <g data-name="그룹 49" transform="translate(14 4.001)" style="clip-path:url(#dc6bh8bjoa)">
        <path data-name="패스 111" d="M33 16.5A16.5 16.5 0 1 0 7.663 30.435a2.738 2.738 0 0 1 1.526-.463h5.984c.435-3.035 1.124-7.826 1.144-7.888-7.638 1.359-7.532-4.541-7.532-4.541 6.628-1 7.564 3.235 7.694 4.277a.067.067 0 0 1 .042 0c.13-1.042 1.065-5.28 7.693-4.278 0 0 .107 5.9-7.532 4.541.02.062.709 4.853 1.144 7.888h5.985a2.739 2.739 0 0 1 1.526.463A16.486 16.486 0 0 0 33 16.5" style="fill:#2d2d2d"/>
        <path data-name="패스 112" d="M34.059 72.742H19.438a1.47 1.47 0 0 0-1.466 1.465v1.33A1.47 1.47 0 0 0 19.438 77a1.47 1.47 0 0 0-1.466 1.465V79.8a1.47 1.47 0 0 0 1.466 1.465h4.243v.771a2.116 2.116 0 0 0 2.11 2.11h1.915a2.116 2.116 0 0 0 2.11-2.11v-.771h4.244a1.47 1.47 0 0 0 1.465-1.465v-1.33A1.47 1.47 0 0 0 34.059 77a1.47 1.47 0 0 0 1.466-1.466v-1.33a1.47 1.47 0 0 0-1.466-1.465" transform="translate(-10.249 -41.482)" style="fill:#ce285b"/>
    </g>
    <path data-name="사각형 224" style="opacity:.5;fill:none" d="M0 0h60v50H0z"/>
</svg>
