<svg xmlns="http://www.w3.org/2000/svg" xmlns:xlink="http://www.w3.org/1999/xlink" width="41.425" height="49.875" viewBox="0 0 41.425 49.875">
  <defs>
    <clipPath id="clip-path">
      <rect id="사각형_302" data-name="사각형 302" width="41.425" height="49.875" fill="#d7d7d7"/>
    </clipPath>
    <clipPath id="clip-path-2">
      <path id="패스_6213" data-name="패스 6213" d="M26.708,39.432a7.712,7.712,0,0,1-1.864-.229l.457,1.471h.146L23.974,50.22l2.734,3.14,2.731-3.14-1.472-9.546h.147l.457-1.471a7.713,7.713,0,0,1-1.863.229" transform="translate(-23.974 -39.203)" fill="#bd1549"/>
    </clipPath>
    <clipPath id="clip-path-3">
      <rect id="사각형_304" data-name="사각형 304" width="41.425" height="49.875" fill="#afafaf"/>
    </clipPath>
  </defs>
  <g id="icon-step-02" transform="translate(0)">
    <g id="그룹_114" data-name="그룹 114" transform="translate(0 0)">
      <g id="그룹_113" data-name="그룹 113" clip-path="url(#clip-path)">
        <path id="패스_6212" data-name="패스 6212" d="M29.9,3.343A1.664,1.664,0,0,1,31.561,5.01V6.625H36.5A1.586,1.586,0,0,1,38.081,8.2V44.952a1.586,1.586,0,0,1-1.581,1.58H4.924a1.586,1.586,0,0,1-1.581-1.58V8.2A1.585,1.585,0,0,1,4.924,6.625H9.862V5.01a1.665,1.665,0,1,1,3.33,0V6.625h5.856V5.01a1.665,1.665,0,1,1,3.33,0V6.625h5.853V5.01A1.666,1.666,0,0,1,29.9,3.343M29.9,0A5.016,5.016,0,0,0,25.3,3.009a5.008,5.008,0,0,0-9.184,0,5.009,5.009,0,0,0-9.294.271h-1.9A4.929,4.929,0,0,0,0,8.2V44.952a4.929,4.929,0,0,0,4.924,4.923H36.5a4.93,4.93,0,0,0,4.925-4.923V8.2A4.93,4.93,0,0,0,36.5,3.281H34.6A5.018,5.018,0,0,0,29.9,0" transform="translate(0 0)" fill="#d7d7d7"/>
      </g>
    </g>
    <g id="그룹_116" data-name="그룹 116" transform="translate(17.979 29.399)">
      <g id="그룹_115" data-name="그룹 115" clip-path="url(#clip-path-2)">
        <rect id="사각형_303" data-name="사각형 303" width="5.466" height="14.157" transform="translate(0 0)" fill="#bd1549"/>
      </g>
    </g>
    <g id="그룹_118" data-name="그룹 118" transform="translate(0 0)">
      <g id="그룹_117" data-name="그룹 117" clip-path="url(#clip-path-3)">
        <path id="패스_6214" data-name="패스 6214" d="M34.585,54.046a1.672,1.672,0,0,1-1.672-1.672V44.467a9.663,9.663,0,0,0-7.578-9.4,1.672,1.672,0,0,1-.166-3.223,6.03,6.03,0,1,0-3.744,0,1.672,1.672,0,0,1-.166,3.223,9.664,9.664,0,0,0-7.579,9.4v7.907a1.672,1.672,0,0,1-3.344,0V44.467a13.043,13.043,0,0,1,6.721-11.353,9.371,9.371,0,1,1,12.48,0,13.043,13.043,0,0,1,6.719,11.353v7.907a1.672,1.672,0,0,1-1.672,1.672" transform="translate(-2.585 -4.187)" fill="#d7d7d7"/>
      </g>
    </g>
  </g>
</svg>
