<svg xmlns="http://www.w3.org/2000/svg" width="120" height="84" viewBox="0 0 120 84">
  <g id="icon-product-baby" transform="translate(-977 -582)">
    <path id="패스_6230" data-name="패스 6230" d="M29.205,60.714a37.879,37.879,0,0,0,18.151,2.329V43.734a39.667,39.667,0,0,1-18.151,16.98" transform="translate(1005.284 567.539)" fill="#fff"/>
    <path id="패스_6231" data-name="패스 6231" d="M29.205,60.714a37.879,37.879,0,0,0,18.151,2.329V43.734A39.667,39.667,0,0,1,29.205,60.714Z" transform="translate(1005.284 567.539)" fill="none" stroke="#2d2d2d" stroke-linecap="round" stroke-linejoin="round" stroke-width="1.5"/>
    <path id="패스_6232" data-name="패스 6232" d="M34.5,24.069V18.123a16.373,16.373,0,0,0-32.746,0v11.77a34.714,34.714,0,0,0,14.6,11.156A39.667,39.667,0,0,0,34.5,24.069" transform="translate(1018.144 587.205)" fill="#d7d7d7"/>
    <path id="패스_6233" data-name="패스 6233" d="M34.5,24.069V18.123a16.373,16.373,0,0,0-32.746,0v11.77a34.714,34.714,0,0,0,14.6,11.156A39.667,39.667,0,0,0,34.5,24.069Z" transform="translate(1018.144 587.205)" fill="none" stroke="#2d2d2d" stroke-linecap="round" stroke-linejoin="round" stroke-width="1.5"/>
    <path id="패스_6234" data-name="패스 6234" d="M1.75,54.69V68.65a16.373,16.373,0,0,0,32.746,0v-.474C15.952,70.038,5.751,59.963,1.75,54.69" transform="translate(1018.144 562.407)" fill="#fff" stroke="#2d2d2d" stroke-width="1.5"/>
    <path id="패스_6235" data-name="패스 6235" d="M1.75,54.69V68.65A16.373,16.373,0,0,0,18.123,85.023,16.612,16.612,0,0,0,25.647,83.2,16.259,16.259,0,0,0,34.5,68.65v-.474A41.748,41.748,0,0,1,24,67.941,34.275,34.275,0,0,1,1.75,54.69Z" transform="translate(1018.144 562.407)" fill="none" stroke="#2d2d2d" stroke-linecap="round" stroke-linejoin="round" stroke-width="1.5"/>
    <path id="패스_6236" data-name="패스 6236" d="M33.042,26.221a1.617,1.617,0,0,0-1.156-.029,10.658,10.658,0,0,0-21.2.005,1.618,1.618,0,0,0-1.17.023,2.2,2.2,0,0,0-.784,2.967A2.291,2.291,0,0,0,11.2,30.741a10.657,10.657,0,0,0,20.179,0,2.3,2.3,0,0,0,2.45-1.556,2.2,2.2,0,0,0-.784-2.967" transform="translate(1014.987 580.224)" fill="#fff"/>
    <path id="패스_6237" data-name="패스 6237" d="M33.042,26.221a1.617,1.617,0,0,0-1.156-.029,10.658,10.658,0,0,0-21.2.005,1.618,1.618,0,0,0-1.17.023,2.2,2.2,0,0,0-.784,2.967A2.291,2.291,0,0,0,11.2,30.741a10.657,10.657,0,0,0,20.179,0,2.3,2.3,0,0,0,2.45-1.556A2.2,2.2,0,0,0,33.042,26.221Z" transform="translate(1014.987 580.224)" fill="none" stroke="#2d2d2d" stroke-linecap="round" stroke-linejoin="round" stroke-width="1.5"/>
    <path id="패스_6238" data-name="패스 6238" d="M18.539,35.222a1.87,1.87,0,0,0,3.573,0" transform="translate(1010.28 571.526)" fill="none" stroke="#2d2d2d" stroke-linecap="round" stroke-linejoin="round" stroke-width="1.5"/>
    <path id="패스_6239" data-name="패스 6239" d="M39.867,35.222a1.871,1.871,0,0,0,3.573,0" transform="translate(1000.29 571.526)" fill="none" stroke="#2d2d2d" stroke-linecap="round" stroke-linejoin="round" stroke-width="1.5"/>
    <path id="패스_6240" data-name="패스 6240" d="M25.958,44.766a5.371,5.371,0,0,0,7.023,0" transform="translate(1006.805 567.056)" fill="none" stroke="#2d2d2d" stroke-linecap="round" stroke-linejoin="round" stroke-width="1.5"/>
    <path id="사각형_401" data-name="사각형 401" d="M6.392,0h0a6.392,6.392,0,0,1,6.392,6.392v10.4a6.393,6.393,0,0,1-6.393,6.393h0A6.392,6.392,0,0,1,0,16.791V6.392A6.392,6.392,0,0,1,6.392,0Z" transform="translate(1002.48 624.248)" fill="#fff"/>
    <path id="사각형_402" data-name="사각형 402" d="M6.392,0h0a6.392,6.392,0,0,1,6.392,6.392v10.4a6.393,6.393,0,0,1-6.393,6.393h0A6.392,6.392,0,0,1,0,16.791V6.392A6.392,6.392,0,0,1,6.392,0Z" transform="translate(1002.48 624.248)" fill="none" stroke="#2d2d2d" stroke-linecap="round" stroke-linejoin="round" stroke-width="1.5"/>
    <path id="패스_6241" data-name="패스 6241" d="M14.008,7.746c-1.627-1.37.343-2.954.128-4.538-.191-1.417-1.748-1.464-2.076-1.457s-1.885.04-2.076,1.457c-.214,1.584,1.755,3.168.128,4.538S6.773,10.4,6.773,11.856H17.348c0-1.456-1.712-2.74-3.339-4.11" transform="translate(996.812 610.088)" fill="#fff"/>
    <path id="패스_6242" data-name="패스 6242" d="M14.008,7.746c-1.627-1.37.343-2.954.128-4.538-.191-1.417-1.748-1.464-2.076-1.457s-1.885.04-2.076,1.457c-.214,1.584,1.755,3.168.128,4.538S6.773,10.4,6.773,11.856H17.348C17.348,10.4,15.635,9.116,14.008,7.746Z" transform="translate(996.812 610.088)" fill="none" stroke="#2d2d2d" stroke-linecap="round" stroke-linejoin="round" stroke-width="1.5"/>
    <path id="패스_6243" data-name="패스 6243" d="M15.948,33.388a.84.84,0,0,1-.771.9H2.521a.84.84,0,0,1-.771-.9V29.8a.84.84,0,0,1,.771-.9H15.177a.84.84,0,0,1,.771.9Z" transform="translate(1000.023 592.73)" fill="#d7d7d7"/>
    <path id="패스_6244" data-name="패스 6244" d="M15.948,33.388a.84.84,0,0,1-.771.9H2.521a.84.84,0,0,1-.771-.9V29.8a.84.84,0,0,1,.771-.9H15.177a.84.84,0,0,1,.771.9Z" transform="translate(1000.023 592.73)" fill="none" stroke="#2d2d2d" stroke-linecap="round" stroke-linejoin="round" stroke-width="1.5"/>
    <line id="선_42" data-name="선 42" x2="1.375" transform="translate(1008.185 630.612)" fill="none" stroke="#2d2d2d" stroke-linejoin="round" stroke-width="2"/>
    <line id="선_43" data-name="선 43" x2="1.375" transform="translate(1008.185 634.342)" fill="none" stroke="#2d2d2d" stroke-linejoin="round" stroke-width="2"/>
    <line id="선_44" data-name="선 44" x2="1.375" transform="translate(1008.185 638.073)" fill="none" stroke="#2d2d2d" stroke-linejoin="round" stroke-width="2"/>
    <line id="선_45" data-name="선 45" x2="1.375" transform="translate(1008.185 641.803)" fill="none" stroke="#2d2d2d" stroke-linejoin="round" stroke-width="2"/>
    <rect id="사각형_2610" data-name="사각형 2610" width="120" height="84" transform="translate(977 582)" fill="none"/>
  </g>
</svg>
