<svg xmlns="http://www.w3.org/2000/svg" width="47.305" height="40.8" viewBox="0 0 47.305 40.8">
    <g transform="translate(0 2)">
        <path data-name="패스 6182" d="M46.021 20.455H4.711v27.883A1.8 1.8 0 0 0 6.5 50.129h39.521a1.8 1.8 0 0 0 1.791-1.791V20.455z" transform="translate(-2.609 -11.329)" style="fill:#2d2d2d"/>
        <path data-name="사각형 258" d="M1 0h41.1a1 1 0 0 1 1 1v3.848a1 1 0 0 1-1 1H1a1 1 0 0 1-1-1V1a1 1 0 0 1 1-1z" transform="translate(2.102 1.276)" style="fill:#ce285b"/>
        <rect data-name="사각형 259" width="35.366" height="22.093" rx="2.007" transform="translate(5.969 12.917)" style="fill:#fff"/>
        <path data-name="사각형 260" d="M1 0h2.744a1 1 0 0 1 1 1v2.74a1 1 0 0 1-1 1H1a1 1 0 0 1-1-1V1a1 1 0 0 1 1-1z" transform="translate(10.11 17.944)" style="fill:#2d2d2d"/>
        <path data-name="사각형 261" d="M1 0h2.745a1 1 0 0 1 1 1v2.744a1 1 0 0 1-1 1H1a1 1 0 0 1-1-1V1a1 1 0 0 1 1-1z" transform="translate(17.556 17.944)" style="fill:#2d2d2d"/>
        <path data-name="사각형 262" d="M1 0h2.745a1 1 0 0 1 1 1v2.744a1 1 0 0 1-1 1H1a1 1 0 0 1-1-1V1a1 1 0 0 1 1-1z" transform="translate(25.001 17.944)" style="fill:#2d2d2d"/>
        <path data-name="사각형 263" d="M1 0h2.744a1 1 0 0 1 1 1v2.74a1 1 0 0 1-1 1H1a1 1 0 0 1-1-1V1a1 1 0 0 1 1-1z" transform="translate(32.447 17.944)" style="fill:#2d2d2d"/>
        <path data-name="사각형 264" d="M1 0h2.744a1 1 0 0 1 1 1v2.745a1 1 0 0 1-1 1H1a1 1 0 0 1-1-1V1a1 1 0 0 1 1-1z" transform="translate(10.11 25.234)" style="fill:#2d2d2d"/>
        <path data-name="사각형 265" d="M1 0h2.744a1 1 0 0 1 1 1v2.745a1 1 0 0 1-1 1H1a1 1 0 0 1-1-1V1a1 1 0 0 1 1-1z" transform="translate(17.556 25.234)" style="fill:#2d2d2d"/>
        <path data-name="사각형 266" d="M1 0h2.745a1 1 0 0 1 1 1v2.745a1 1 0 0 1-1 1H1a1 1 0 0 1-1-1V1a1 1 0 0 1 1-1z" transform="translate(25.001 25.234)" style="fill:#2d2d2d"/>
        <path data-name="사각형 267" d="M1 0h2.744a1 1 0 0 1 1 1v2.745a1 1 0 0 1-1 1H1a1 1 0 0 1-1-1V1a1 1 0 0 1 1-1z" transform="translate(32.447 25.234)" style="fill:#2d2d2d"/>
        <path data-name="패스 6183" d="M19.57 6.105a1.343 1.343 0 0 1-1.343-1.343V1.343a1.343 1.343 0 1 1 2.686 0v3.419a1.343 1.343 0 0 1-1.343 1.343" transform="translate(-10.094 -2)" style="fill:#2d2d2d"/>
        <path data-name="패스 6184" d="M40.975 6.105a1.343 1.343 0 0 1-1.343-1.343V1.343a1.343 1.343 0 1 1 2.686 0v3.419a1.343 1.343 0 0 1-1.343 1.343" transform="translate(-21.949 -2)" style="fill:#2d2d2d"/>
        <path data-name="패스 6185" d="M62.38 6.105a1.343 1.343 0 0 1-1.343-1.343V1.343a1.343 1.343 0 1 1 2.686 0v3.419a1.343 1.343 0 0 1-1.343 1.343" transform="translate(-33.803 -2)" style="fill:#2d2d2d"/>
        <path data-name="패스 6186" d="M83.783 6.105a1.343 1.343 0 0 1-1.343-1.343V1.343a1.343 1.343 0 1 1 2.686 0v3.419a1.343 1.343 0 0 1-1.343 1.343" transform="translate(-45.657 -2)" style="fill:#2d2d2d"/>
        <path data-name="사각형 268" style="fill:none" d="M0 0h47.305v38.8H0z"/>
    </g>
</svg>
