<svg xmlns="http://www.w3.org/2000/svg" xmlns:xlink="http://www.w3.org/1999/xlink" width="22" height="18.202" viewBox="0 0 22 18.202">
  <defs>
    <clipPath id="clip-path">
      <rect id="사각형_230" data-name="사각형 230" width="22" height="18.202" fill="none"/>
    </clipPath>
  </defs>
  <g id="icon-home" clip-path="url(#clip-path)">
    <path id="패스_1128" data-name="패스 1128" d="M20.74,25.241H8.488a2.03,2.03,0,0,1-2.027-2.027V13.295a.71.71,0,1,1,1.419,0v9.919a.609.609,0,0,0,.609.609H20.741a.61.61,0,0,0,.609-.609V13.295a.71.71,0,1,1,1.419,0v9.919a2.03,2.03,0,0,1-2.029,2.028" transform="translate(-3.614 -7.039)" fill="#1a1311"/>
    <path id="패스_1129" data-name="패스 1129" d="M.71,8.746A.71.71,0,0,1,.3,7.458L10.608.142a.71.71,0,1,1,.851,1.136l-.03.021L1.119,8.615a.708.708,0,0,1-.41.131" transform="translate(0 0)" fill="#1a1311"/>
    <path id="패스_1130" data-name="패스 1130" d="M34.388,8.733a.707.707,0,0,1-.409-.132L23.706,1.325a.71.71,0,0,1,.82-1.158L34.8,7.445a.71.71,0,0,1-.411,1.288Z" transform="translate(-13.098 -0.025)" fill="#1a1311"/>
    <line id="선_28" data-name="선 28" y1="4.205" transform="translate(11 13.012)" fill="#1a1311"/>
    <line id="선_29" data-name="선 29" y1="6.244" transform="translate(11 10.973)" fill="none" stroke="#1a1311" stroke-width="2"/>
  </g>
</svg>
