<svg xmlns="http://www.w3.org/2000/svg" xmlns:xlink="http://www.w3.org/1999/xlink" width="120" height="84" viewBox="0 0 120 84">
  <defs>
    <clipPath id="clip-path">
      <rect id="사각형_404" data-name="사각형 404" width="29.125" height="42.572" fill="none"/>
    </clipPath>
  </defs>
  <g id="icon-product-food" transform="translate(-977 -730)">
    <path id="패스_6245" data-name="패스 6245" d="M27.418,46.266H37.9V18.528L32.969,9.873,20.728,17.542Z" transform="translate(1019.714 743.664)" fill="#fff"/>
    <g id="그룹_200" data-name="그룹 200" transform="translate(1029.423 748.289)">
      <g id="그룹_199" data-name="그룹 199" clip-path="url(#clip-path)">
        <path id="패스_6246" data-name="패스 6246" d="M27.418,46.266H37.9V18.528L32.969,9.873,20.728,17.542Z" transform="translate(-9.709 -4.625)" fill="none" stroke="#2d2d2d" stroke-linecap="round" stroke-linejoin="round" stroke-width="1.5"/>
      </g>
    </g>
    <rect id="사각형_405" data-name="사각형 405" width="16.778" height="4.318" transform="translate(1035.905 749.219)" fill="#fff"/>
    <g id="그룹_202" data-name="그룹 202" transform="translate(1029.423 748.289)">
      <g id="그룹_201" data-name="그룹 201" clip-path="url(#clip-path)">
        <rect id="사각형_406" data-name="사각형 406" width="16.778" height="4.318" transform="translate(6.482 0.93)" fill="none" stroke="#2d2d2d" stroke-linecap="round" stroke-linejoin="round" stroke-width="1.5"/>
      </g>
    </g>
    <path id="패스_6247" data-name="패스 6247" d="M24.08,9.873H7.3L1.75,18.755H18.529Z" transform="translate(1028.604 743.664)" fill="#fff"/>
    <g id="그룹_204" data-name="그룹 204" transform="translate(1029.423 748.289)">
      <g id="그룹_203" data-name="그룹 203" clip-path="url(#clip-path)">
        <path id="패스_6248" data-name="패스 6248" d="M24.08,9.873H7.3L1.75,18.755H18.529Z" transform="translate(-0.82 -4.625)" fill="none" stroke="#2d2d2d" stroke-linecap="round" stroke-linejoin="round" stroke-width="1.5"/>
      </g>
    </g>
    <rect id="사각형_409" data-name="사각형 409" width="16.778" height="27.511" transform="translate(1030.354 762.419)" fill="#fff"/>
    <g id="그룹_206" data-name="그룹 206" transform="translate(1029.423 748.289)">
      <g id="그룹_205" data-name="그룹 205" clip-path="url(#clip-path)">
        <rect id="사각형_410" data-name="사각형 410" width="16.778" height="27.511" transform="translate(0.93 14.131)" fill="none" stroke="#2d2d2d" stroke-linecap="round" stroke-linejoin="round" stroke-width="1.5"/>
      </g>
    </g>
    <path id="사각형_412" data-name="사각형 412" d="M3.582,0h0A3.583,3.583,0,0,1,7.166,3.583V5.345A3.583,3.583,0,0,1,3.583,8.928h0A3.583,3.583,0,0,1,0,5.345V3.582A3.582,3.582,0,0,1,3.582,0Z" transform="translate(1028.495 774.1)" fill="#fff"/>
    <path id="사각형_413" data-name="사각형 413" d="M3.582,0h0A3.583,3.583,0,0,1,7.166,3.583V5.345A3.583,3.583,0,0,1,3.583,8.928h0A3.583,3.583,0,0,1,0,5.345V3.582A3.582,3.582,0,0,1,3.582,0Z" transform="translate(1028.495 774.1)" fill="none" stroke="#2d2d2d" stroke-linecap="round" stroke-linejoin="round" stroke-width="1.5"/>
    <path id="패스_6249" data-name="패스 6249" d="M9.451,1.75v16a3.368,3.368,0,0,0,3.368,3.368H24.292a3.368,3.368,0,0,0,3.368-3.368v-16Z" transform="translate(1004.242 768.25)" fill="#fff"/>
    <path id="패스_6250" data-name="패스 6250" d="M9.451,1.75v16a3.368,3.368,0,0,0,3.368,3.368H24.292a3.368,3.368,0,0,0,3.368-3.368v-16Z" transform="translate(1004.242 768.25)" fill="none" stroke="#2d2d2d" stroke-linecap="round" stroke-linejoin="round" stroke-width="1.5"/>
    <line id="선_46" data-name="선 46" y2="8.223" transform="translate(1022.798 770.106)" fill="#fff"/>
    <line id="선_47" data-name="선 47" y2="8.223" transform="translate(1022.798 770.106)" fill="none" stroke="#2d2d2d" stroke-linecap="round" stroke-linejoin="round" stroke-width="1.5"/>
    <rect id="사각형_414" data-name="사각형 414" width="3.994" height="4.581" transform="translate(1020.801 778.447)" fill="#fff"/>
    <rect id="사각형_415" data-name="사각형 415" width="3.994" height="4.581" transform="translate(1020.801 778.447)" fill="none" stroke="#2d2d2d" stroke-linecap="round" stroke-linejoin="round" stroke-width="1.5"/>
    <path id="패스_6251" data-name="패스 6251" d="M1.75,39.93v.039a3.368,3.368,0,0,0,3.368,3.368H23.6a3.368,3.368,0,0,0,3.367-3.368V39.93Z" transform="translate(1008.438 747.444)" fill="#fff"/>
    <path id="패스_6252" data-name="패스 6252" d="M1.75,39.93v.039a3.368,3.368,0,0,0,3.368,3.368H23.6a3.368,3.368,0,0,0,3.367-3.368V39.93Z" transform="translate(1008.438 747.444)" fill="none" stroke="#2d2d2d" stroke-linecap="round" stroke-linejoin="round" stroke-width="1.5"/>
    <rect id="사각형_2609" data-name="사각형 2609" width="120" height="84" transform="translate(977 730)" fill="none"/>
  </g>
</svg>
