<svg xmlns="http://www.w3.org/2000/svg" width="120" height="84" viewBox="0 0 120 84">
  <g id="icon-product-etc" transform="translate(-1260 -730)">
    <path id="패스_6306" data-name="패스 6306" d="M55.861,1.75V38.324L53.59,41.036s-5.717-7.623-5.791-7.843S49.558,4.608,49.558,4.608Z" transform="translate(1291.982 744.853)" fill="#fff"/>
    <path id="패스_6307" data-name="패스 6307" d="M55.861,1.75V38.324L53.59,41.036s-5.717-7.623-5.791-7.843S49.558,4.608,49.558,4.608Z" transform="translate(1291.982 744.853)" fill="none" stroke="#2d2d2d" stroke-linecap="round" stroke-linejoin="round" stroke-width="1.5"/>
    <rect id="사각형_468" data-name="사각형 468" width="30.271" height="34.888" transform="translate(1315.301 751)" fill="#fff"/>
    <rect id="사각형_469" data-name="사각형 469" width="30.271" height="34.888" transform="translate(1315.301 751)" fill="none" stroke="#2d2d2d" stroke-linecap="round" stroke-linejoin="round" stroke-width="1.5"/>
    <path id="패스_6310" data-name="패스 6310" d="M31.15,22.785v8a6.506,6.506,0,1,1-13.012,0v-8" transform="translate(1305.875 735)" fill="none" stroke="#2d2d2d" stroke-linecap="round" stroke-linejoin="round" stroke-width="1.5"/>
    <rect id="사각형_475" data-name="사각형 475" width="10.545" height="17.033" transform="translate(1312.333 773.694)" fill="#fff" stroke="#2d2d2d" stroke-linecap="round" stroke-linejoin="round" stroke-width="1.5"/>
    <path id="패스_6315" data-name="패스 6315" d="M52.443,7.968,48.387,1.75H41.9V7.968Z" transform="translate(1270.434 765.725)" fill="#fff" stroke="#2d2d2d" stroke-linecap="round" stroke-linejoin="round" stroke-width="1.5"/>
    <rect id="사각형_2614" data-name="사각형 2614" width="120" height="84" transform="translate(1260 730)" fill="none"/>
  </g>
</svg>
