<svg xmlns="http://www.w3.org/2000/svg" xmlns:xlink="http://www.w3.org/1999/xlink" width="41.89" height="48.475" viewBox="0 0 41.89 48.475">
  <defs>
    <clipPath id="clip-path">
      <rect id="사각형_293" data-name="사각형 293" width="41.89" height="48.475" fill="#e8e8e8"/>
    </clipPath>
  </defs>
  <g id="icon-step-01" transform="translate(0 0)">
    <g id="그룹_93" data-name="그룹 93" transform="translate(0 0)" clip-path="url(#clip-path)">
      <path id="패스_6197" data-name="패스 6197" d="M38.22,48.474H3.669A3.673,3.673,0,0,1,0,44.8V11.955a1.817,1.817,0,0,1,.532-1.284L10.672.531A1.813,1.813,0,0,1,11.956,0H38.22a3.673,3.673,0,0,1,3.67,3.67V44.8a3.674,3.674,0,0,1-3.67,3.67M3.63,12.706V44.8a.047.047,0,0,0,.039.041H38.22a.047.047,0,0,0,.04-.041V3.67a.047.047,0,0,0-.04-.04H12.708Z" transform="translate(0 0)" fill="#d7d7d7"/>
      <path id="패스_6198" data-name="패스 6198" d="M10.681,13.595H1.868A1.589,1.589,0,0,1,.744,10.884L10.885.744A1.589,1.589,0,0,1,13.6,1.867V10.68a2.918,2.918,0,0,1-2.915,2.915M5.7,10.419H10.42V5.7Z" transform="translate(-0.052 -0.052)" fill="#d7d7d7"/>
      <path id="패스_6199" data-name="패스 6199" d="M34.66,20.885a1.916,1.916,0,0,0-2.7.215L21.782,33.04l-6.338-6.879a1.916,1.916,0,0,0-2.817,2.6l7.8,8.468a1.923,1.923,0,0,0,1.409.618h.037a1.915,1.915,0,0,0,1.422-.673l11.58-13.586a1.919,1.919,0,0,0-.217-2.7" transform="translate(-2.252 -3.795)" fill="#bd1549"/>
    </g>
  </g>
</svg>
