<svg xmlns="http://www.w3.org/2000/svg" width="120" height="84" viewBox="0 0 120 84">
  <g id="icon-product-laundry" transform="translate(-1260 -582)">
    <path id="패스_6253" data-name="패스 6253" d="M8.924,14.456l-7.173,6.7V56.331H20.032V16.245Z" transform="translate(1302.045 583.849)" fill="#fff"/>
    <path id="패스_6254" data-name="패스 6254" d="M8.924,14.456l-7.173,6.7V56.331H20.032V16.245Z" transform="translate(1302.045 583.849)" fill="none" stroke="#2d2d2d" stroke-linecap="round" stroke-linejoin="round" stroke-width="1.5"/>
    <path id="패스_6255" data-name="패스 6255" d="M61.327,21.158l-7.173-6.7L43.046,16.245V56.332H61.327Z" transform="translate(1283.196 583.849)" fill="#fff"/>
    <path id="패스_6256" data-name="패스 6256" d="M61.327,21.158l-7.173-6.7L43.046,16.245V56.332H61.327Z" transform="translate(1283.196 583.849)" fill="none" stroke="#2d2d2d" stroke-linecap="round" stroke-linejoin="round" stroke-width="1.5"/>
    <path id="패스_6257" data-name="패스 6257" d="M37.465,18.082l-2.082-.335V57.833h4.165V17.746Z" transform="translate(1286.693 582.347)" fill="#fff"/>
    <path id="패스_6258" data-name="패스 6258" d="M37.465,18.082l-2.082-.335V57.833h4.165V17.746Z" transform="translate(1286.693 582.347)" fill="none" stroke="#2d2d2d" stroke-linecap="round" stroke-linejoin="round" stroke-width="1.5"/>
    <path id="패스_6259" data-name="패스 6259" d="M27.827,10.836,22.264,16.4,14.52,8.657,18.742,1.75Z" transform="translate(1296.216 589.648)" fill="#d7d7d7"/>
    <path id="패스_6260" data-name="패스 6260" d="M27.827,10.836,22.264,16.4,14.52,8.657,18.742,1.75Z" transform="translate(1296.216 589.648)" fill="none" stroke="#2d2d2d" stroke-linecap="round" stroke-linejoin="round" stroke-width="1.5"/>
    <path id="패스_6261" data-name="패스 6261" d="M39.426,10.836,44.989,16.4l7.744-7.743L48.511,1.75Z" transform="translate(1284.848 589.648)" fill="#d7d7d7"/>
    <path id="패스_6262" data-name="패스 6262" d="M39.426,10.836,44.989,16.4l7.744-7.743L48.511,1.75Z" transform="translate(1284.848 589.648)" fill="none" stroke="#2d2d2d" stroke-linecap="round" stroke-linejoin="round" stroke-width="1.5"/>
    <path id="패스_6263" data-name="패스 6263" d="M22.287,1.75h0Z" transform="translate(1292.671 589.648)" fill="#fff"/>
    <line id="선_48" data-name="선 48" x2="18.402" transform="translate(1314.958 591.398)" fill="none" stroke="#2d2d2d" stroke-linecap="round" stroke-linejoin="round" stroke-width="1.5"/>
    <path id="패스_6264" data-name="패스 6264" d="M51.276,46.5v3.518a3.356,3.356,0,0,0,3.355,3.355H58.45a3.355,3.355,0,0,0,3.355-3.355V46.5Z" transform="translate(1279.439 569.224)" fill="#fff"/>
    <path id="패스_6265" data-name="패스 6265" d="M51.276,46.5v3.518a3.356,3.356,0,0,0,3.355,3.355H58.45a3.355,3.355,0,0,0,3.355-3.355V46.5Z" transform="translate(1279.439 569.224)" fill="none" stroke="#2d2d2d" stroke-linecap="round" stroke-linejoin="round" stroke-width="1.5"/>
    <rect id="사각형_422" data-name="사각형 422" width="10.53" height="3.657" transform="translate(1330.715 612.065)" fill="#fff"/>
    <rect id="사각형_423" data-name="사각형 423" width="10.53" height="3.657" transform="translate(1330.715 612.065)" fill="none" stroke="#2d2d2d" stroke-linecap="round" stroke-linejoin="round" stroke-width="1.5"/>
    <path id="패스_6268" data-name="패스 6268" d="M68.506,3.752c-.136.9-1.254,1.471-2.5,1.282s-2.141-1.068-2-1.966S65.259,1.6,66.5,1.786s2.141,1.068,2,1.965" transform="translate(1238.978 617.796)" fill="#fff"/>
    <path id="패스_6269" data-name="패스 6269" d="M68.506,3.752c-.136.9-1.254,1.471-2.5,1.282s-2.141-1.068-2-1.966S65.259,1.6,66.5,1.786,68.643,2.855,68.506,3.752Z" transform="translate(1238.978 617.796)" fill="none" stroke="#2d2d2d" stroke-linejoin="round" stroke-width="1.5"/>
    <path id="패스_6270" data-name="패스 6270" d="M55.528,24.872v-9.33s.9-6.42-7.241-10.152S31.64,3.448,29.924,6.733,26.341,19.2,26.341,19.2Z" transform="translate(1259.821 616.936)" fill="#fff"/>
    <path id="패스_6271" data-name="패스 6271" d="M55.528,24.872v-9.33s.9-6.42-7.241-10.152S31.64,3.448,29.924,6.733,26.341,19.2,26.341,19.2Z" transform="translate(1259.821 616.936)" fill="none" stroke="#2d2d2d" stroke-linejoin="round" stroke-width="1.5"/>
    <path id="패스_6272" data-name="패스 6272" d="M44.513,42.356,34.435,49.9s-4.778,2.388-8.212-.3-15.451-9.7-19.781-9.555l8.883-3.657s6.517-2.683,12.119-.869c6.765,2.191,17.068,6.84,17.068,6.84" transform="translate(1270.836 599.453)" fill="#d7d7d7"/>
    <path id="패스_6273" data-name="패스 6273" d="M44.513,42.356,34.435,49.9s-4.778,2.388-8.212-.3-15.451-9.7-19.781-9.555l8.883-3.657s6.517-2.683,12.119-.869C34.21,37.707,44.513,42.356,44.513,42.356Z" transform="translate(1270.836 599.453)" fill="none" stroke="#2d2d2d" stroke-linecap="round" stroke-linejoin="round" stroke-width="1.5"/>
    <path id="패스_6275" data-name="패스 6275" d="M80.193,10.818s1.4,1.417,1.12,4.853c-.448,5.524-1.966,10.721-1.592,11.094" transform="translate(1230.303 612.776)" fill="none" stroke="#2d2d2d" stroke-linejoin="round" stroke-width="1.5"/>
    <rect id="사각형_2613" data-name="사각형 2613" width="120" height="84" transform="translate(1260 582)" fill="none"/>
  </g>
</svg>
