<svg xmlns="http://www.w3.org/2000/svg" xmlns:xlink="http://www.w3.org/1999/xlink" width="20" height="19.984" viewBox="0 0 20 19.984">
  <defs>
    <clipPath id="clip-path">
      <rect id="사각형_98" data-name="사각형 98" width="20" height="19.984" fill="#5b5b5b"/>
    </clipPath>
  </defs>
  <g id="그룹_19" data-name="그룹 19" clip-path="url(#clip-path)">
    <path id="패스_78" data-name="패스 78" d="M19.7,18.233l-5.185-5.185a8.031,8.031,0,0,0,1.615-6.063,7.95,7.95,0,0,0-1.484-3.669A8.11,8.11,0,0,0,1.737,3.082,7.992,7.992,0,0,0,.026,7.443a8.1,8.1,0,0,0,13.026,7.064l5.158,5.157a1.093,1.093,0,0,0,.771.319h.042a1,1,0,0,0,.731-.351h0a1.034,1.034,0,0,0-.057-1.4M3.833,3.828A6.036,6.036,0,1,1,2.065,8.1,6.019,6.019,0,0,1,3.833,3.828" transform="translate(0 0)" fill="#5b5b5b"/>
  </g>
</svg>
