<svg xmlns="http://www.w3.org/2000/svg" width="120" height="84" viewBox="0 0 120 84">
  <g id="icon-product-hair" transform="translate(-1260 -434)">
    <rect id="사각형_427" data-name="사각형 427" width="6.874" height="15.274" transform="translate(1298.016 444.672)" fill="none" stroke="#2d2d2d" stroke-linejoin="round" stroke-width="1.5"/>
    <path id="사각형_428" data-name="사각형 428" d="M7.183,0h7.781a7.183,7.183,0,0,1,7.183,7.183V36.73a7.183,7.183,0,0,1-7.183,7.183H7.184A7.184,7.184,0,0,1,0,36.729V7.183A7.183,7.183,0,0,1,7.183,0Z" transform="translate(1290.378 454.599)" fill="#fff"/>
    <path id="사각형_429" data-name="사각형 429" d="M7.183,0h7.781a7.183,7.183,0,0,1,7.183,7.183V36.73a7.183,7.183,0,0,1-7.183,7.183H7.184A7.184,7.184,0,0,1,0,36.729V7.183A7.183,7.183,0,0,1,7.183,0Z" transform="translate(1290.378 454.599)" fill="none" stroke="#2d2d2d" stroke-linejoin="round" stroke-width="1.5"/>
    <path id="사각형_430" data-name="사각형 430" d="M3.591,0h7.327A3.592,3.592,0,0,1,14.51,3.592v.071a3.592,3.592,0,0,1-3.592,3.592H3.59A3.59,3.59,0,0,1,0,3.665V3.591A3.591,3.591,0,0,1,3.591,0Z" transform="translate(1294.197 444.289)" fill="#fff"/>
    <path id="사각형_431" data-name="사각형 431" d="M3.591,0h7.327A3.592,3.592,0,0,1,14.51,3.592v.071a3.592,3.592,0,0,1-3.592,3.592H3.59A3.59,3.59,0,0,1,0,3.665V3.591A3.591,3.591,0,0,1,3.591,0Z" transform="translate(1294.197 444.289)" fill="none" stroke="#2d2d2d" stroke-linejoin="round" stroke-width="1.5"/>
    <rect id="사각형_432" data-name="사각형 432" width="11.164" height="23.922" transform="translate(1295.871 467.68)" fill="#d7d7d7"/>
    <rect id="사각형_433" data-name="사각형 433" width="11.164" height="23.922" transform="translate(1295.871 467.68)" fill="none" stroke="#2d2d2d" stroke-linecap="round" stroke-linejoin="round" stroke-width="1.5"/>
    <rect id="사각형_434" data-name="사각형 434" width="12.767" height="6.764" transform="translate(1321.366 464.644)" fill="#fff"/>
    <rect id="사각형_435" data-name="사각형 435" width="12.767" height="6.764" transform="translate(1321.366 464.644)" fill="none" stroke="#2d2d2d" stroke-linecap="round" stroke-linejoin="round" stroke-width="1.5"/>
    <path id="패스_6276" data-name="패스 6276" d="M68.558,48.617H56.835a4.753,4.753,0,0,0-4.753,4.753V76.025a1.9,1.9,0,0,0,1.9,1.9H71.41a1.9,1.9,0,0,0,1.9-1.9V53.37a4.752,4.752,0,0,0-4.753-4.753" transform="translate(1265.052 420.587)" fill="#fff"/>
    <path id="패스_6277" data-name="패스 6277" d="M68.558,48.617H56.835a4.753,4.753,0,0,0-4.753,4.753V76.025a1.9,1.9,0,0,0,1.9,1.9H71.41a1.9,1.9,0,0,0,1.9-1.9V53.37A4.752,4.752,0,0,0,68.558,48.617Z" transform="translate(1265.052 420.587)" fill="none" stroke="#2d2d2d" stroke-linecap="round" stroke-linejoin="round" stroke-width="1.5"/>
    <rect id="사각형_436" data-name="사각형 436" width="11.526" height="12.375" transform="translate(1321.985 478.985)" fill="#d7d7d7"/>
    <rect id="사각형_437" data-name="사각형 437" width="11.526" height="12.375" transform="translate(1321.985 478.985)" fill="none" stroke="#2d2d2d" stroke-linecap="round" stroke-linejoin="round" stroke-width="1.5"/>
    <path id="패스_6278" data-name="패스 6278" d="M72.963,39.827H57.59V36.183H72.963Z" transform="translate(1262.473 426.411)" fill="#fff"/>
    <path id="패스_6279" data-name="패스 6279" d="M72.963,39.827H57.59V36.183H72.963Z" transform="translate(1262.473 426.411)" fill="none" stroke="#2d2d2d" stroke-linecap="round" stroke-linejoin="round" stroke-width="1.5"/>
    <rect id="사각형_2612" data-name="사각형 2612" width="120" height="84" transform="translate(1260 434)" fill="none"/>
  </g>
</svg>
