<svg xmlns="http://www.w3.org/2000/svg" width="60" height="50" viewBox="0 0 60 50">
    <defs>
        <clipPath id="w3zwdclmea">
            <path data-name="사각형 215" style="fill:none" d="M0 0h48v46.195H0z"/>
        </clipPath>
    </defs>
    <g data-name="그룹 42" transform="translate(6 2)" style="clip-path:url(#w3zwdclmea)">
        <path data-name="패스 99" d="M48.277 16.209a8.562 8.562 0 0 1 1.248.1 23.285 23.285 0 0 0-.291-2.433C48.052 7.193 42.017 0 31.562 0s-16.49 7.193-17.673 13.876a23.135 23.135 0 0 0-.29 2.434 8.561 8.561 0 0 1 1.247-.1h1.432c.048-.59.12-1.228.234-1.869.715-4.039 4.781-11.677 15.05-11.677S45.9 10.3 46.611 14.341c.113.639.186 1.276.234 1.868h1.433z" transform="translate(-7.562)" style="fill:#2d2d2d"/>
        <path data-name="패스 100" d="M65.576 84.159h-.757a7.315 7.315 0 0 1-1.624 4.076 4.747 4.747 0 0 1-3.7 1.433h-3.433a1.134 1.134 0 0 0-1.124-.995h-7.706a1.138 1.138 0 0 0-1.138 1.138v2.021a1.138 1.138 0 0 0 1.138 1.139h7.707a1.136 1.136 0 0 0 1.133-1.083H59.5a6.934 6.934 0 0 0 5.336-2.155 9.727 9.727 0 0 0 2.225-5.611 8.79 8.79 0 0 1-.712.036z" transform="translate(-25.631 -46.777)" style="fill:#2d2d2d"/>
        <path data-name="패스 101" d="M8.556 39.511H7.284A7.285 7.285 0 0 0 0 46.795v3.942a7.284 7.284 0 0 0 7.284 7.284h3.482a.51.51 0 0 0 .51-.511V40.021a.51.51 0 0 0-.51-.51h-2.21z" transform="translate(0 -21.97)" style="fill:#ce285b"/>
        <path data-name="패스 102" d="M87.34 39.511h-2.981a.51.51 0 0 0-.51.51V57.51a.51.51 0 0 0 .51.511h2.981a7.284 7.284 0 0 0 7.284-7.284v-3.942a7.285 7.285 0 0 0-7.284-7.284" transform="translate(-46.624 -21.97)" style="fill:#ce285b"/>
        <path data-name="패스 103" d="M45.667 37.4a2.172 2.172 0 0 1 2.257-1.742 1.817 1.817 0 0 1 1.956 1.811 2.97 2.97 0 0 1-1.634 2.323l-.731.488a3.268 3.268 0 0 0-1.715 3.37v.674a1.767 1.767 0 1 0 3.526 0v-.465A1.246 1.246 0 0 1 49.9 42.7l.666-.465c1.7-1.184 2.881-2.532 2.881-4.738 0-3.228-2.279-5.319-5.762-5.319a5.163 5.163 0 0 0-5.222 4.222 1.683 1.683 0 0 0 1.14 2.021 1.533 1.533 0 0 0 2.064-1.021" transform="translate(-23.592 -17.891)" style="fill:#2d2d2d"/>
        <path data-name="패스 104" d="M51.253 67.814a2.18 2.18 0 1 0 2.18 2.18 2.2 2.2 0 0 0-2.18-2.18" transform="translate(-27.287 -37.708)" style="fill:#2d2d2d"/>
    </g>
    <path data-name="사각형 220" style="opacity:.5;fill:none" d="M0 0h60v50H0z"/>
</svg>
